<mxfile host="65bd71144e">
    <diagram id="MuZAtRpMIBstmGgHcjIb" name="Page-1">
        <mxGraphModel dx="1165" dy="722" grid="1" gridSize="10" guides="1" tooltips="1" connect="1" arrows="1" fold="1" page="1" pageScale="1" pageWidth="850" pageHeight="1100" math="0" shadow="0">
            <root>
                <mxCell id="0"/>
                <mxCell id="1" parent="0"/>
                <mxCell id="48" value="" style="endArrow=none;html=1;" parent="1" edge="1">
                    <mxGeometry width="50" height="50" relative="1" as="geometry">
                        <mxPoint x="280" y="1010" as="sourcePoint"/>
                        <mxPoint x="280" y="80" as="targetPoint"/>
                    </mxGeometry>
                </mxCell>
                <mxCell id="8" value="&lt;span&gt;Sơ đồ&amp;nbsp;&lt;/span&gt;activity của hệ thống tự động cập nhật trạng thái và gửi mail và (fleet_business_automated)&amp;nbsp;" style="text;html=1;align=center;verticalAlign=middle;resizable=0;points=[];autosize=1;strokeColor=none;fillColor=none;fontStyle=1" parent="1" vertex="1">
                    <mxGeometry x="80" y="40" width="580" height="20" as="geometry"/>
                </mxCell>
                <mxCell id="10" value="Nhân viên" style="rounded=1;whiteSpace=wrap;html=1;strokeWidth=2;dashed=1;" parent="1" vertex="1">
                    <mxGeometry x="95" y="80" width="100" height="40" as="geometry"/>
                </mxCell>
                <mxCell id="152" value="" style="edgeStyle=none;html=1;fontColor=#171717;" edge="1" parent="1" source="37" target="153">
                    <mxGeometry relative="1" as="geometry">
                        <mxPoint x="345" y="280" as="targetPoint"/>
                    </mxGeometry>
                </mxCell>
                <mxCell id="37" value="Tạo thành công record công tác trên database, trạng thái chưa duyệt [draft]" style="whiteSpace=wrap;html=1;rounded=0;fontSize=11;fillColor=#a20025;fontColor=#ffffff;strokeColor=#6F0000;" parent="1" vertex="1">
                    <mxGeometry x="70" y="235.39" width="150" height="69.23" as="geometry"/>
                </mxCell>
                <mxCell id="41" value="Hệ thống" style="rounded=1;whiteSpace=wrap;html=1;strokeWidth=2;strokeColor=#171717;fillColor=#FFFFFF;fontColor=#171717;" parent="1" vertex="1">
                    <mxGeometry x="515" y="80" width="100" height="40" as="geometry"/>
                </mxCell>
                <mxCell id="100" value="" style="ellipse;html=1;shape=startState;fillColor=#000000;strokeColor=#ff0000;dashed=1;" parent="1" vertex="1">
                    <mxGeometry x="130" y="140" width="30" height="30" as="geometry"/>
                </mxCell>
                <mxCell id="101" value="" style="edgeStyle=orthogonalEdgeStyle;html=1;verticalAlign=bottom;endArrow=open;endSize=8;strokeColor=#ff0000;" parent="1" source="100" target="37" edge="1">
                    <mxGeometry relative="1" as="geometry">
                        <mxPoint x="145" y="250" as="targetPoint"/>
                    </mxGeometry>
                </mxCell>
                <mxCell id="158" value="&lt;font&gt;[&lt;/font&gt;&lt;span&gt;Qua ngày hạn duyệt&lt;br&gt;&lt;/span&gt;&lt;font&gt;hoặc ko được duyệt]&lt;/font&gt;" style="edgeStyle=none;html=1;fontColor=default;" edge="1" parent="1" source="153" target="157">
                    <mxGeometry x="-0.04" y="20" relative="1" as="geometry">
                        <mxPoint as="offset"/>
                    </mxGeometry>
                </mxCell>
                <mxCell id="153" value="draft" style="rhombus;whiteSpace=wrap;html=1;" vertex="1" parent="1">
                    <mxGeometry x="320" y="245" width="50" height="50" as="geometry"/>
                </mxCell>
                <mxCell id="157" value="Gửi mass mail cho người tạo chuyến là chuyến không được duyệt, và có thể hỏi lại" style="whiteSpace=wrap;html=1;" vertex="1" parent="1">
                    <mxGeometry x="495" y="240" width="185" height="60" as="geometry"/>
                </mxCell>
                <mxCell id="159" value="&lt;font&gt;[&lt;/font&gt;&lt;span style=&quot;&quot;&gt;Gần tới [7] ngày hạn duyệt&lt;/span&gt;&lt;font&gt;]&lt;/font&gt;" style="edgeStyle=none;html=1;fontColor=default;exitX=0.5;exitY=0;exitDx=0;exitDy=0;" edge="1" parent="1" target="160" source="153">
                    <mxGeometry x="0.1707" y="10" relative="1" as="geometry">
                        <mxPoint x="370" y="190" as="sourcePoint"/>
                        <mxPoint as="offset"/>
                        <Array as="points">
                            <mxPoint x="345" y="190"/>
                        </Array>
                    </mxGeometry>
                </mxCell>
                <mxCell id="164" value="" style="edgeStyle=none;html=1;fontColor=#FFFFFF;" edge="1" parent="1" source="157" target="163">
                    <mxGeometry relative="1" as="geometry"/>
                </mxCell>
                <mxCell id="160" value="Gửi mass mail cho chuyên viên đang cần duyệt để duyệt và người tạo để tranh thủ" style="whiteSpace=wrap;html=1;" vertex="1" parent="1">
                    <mxGeometry x="495" y="160" width="185" height="60" as="geometry"/>
                </mxCell>
                <mxCell id="161" value="&lt;font&gt;[Chuyến đã được duyệt thành công]&lt;/font&gt;" style="edgeStyle=none;html=1;fontColor=default;" edge="1" parent="1" target="162" source="153">
                    <mxGeometry x="0.125" y="-15" relative="1" as="geometry">
                        <mxPoint x="340" y="330" as="sourcePoint"/>
                        <mxPoint as="offset"/>
                        <Array as="points">
                            <mxPoint x="345" y="385"/>
                        </Array>
                    </mxGeometry>
                </mxCell>
                <mxCell id="166" value="" style="edgeStyle=none;html=1;fontColor=#FFFFFF;" edge="1" parent="1" source="162" target="165">
                    <mxGeometry relative="1" as="geometry"/>
                </mxCell>
                <mxCell id="162" value="Gửi mass mail đến các nhân sự tham dự và tài xế, thông báo để chuẩn bị" style="whiteSpace=wrap;html=1;" vertex="1" parent="1">
                    <mxGeometry x="495" y="355" width="185" height="60" as="geometry"/>
                </mxCell>
                <mxCell id="163" value="Chuyển đổi chuyến sang trạng thái không được duyệt [not_approved]" style="whiteSpace=wrap;html=1;fillColor=#a20025;fontColor=#ffffff;strokeColor=#6F0000;" vertex="1" parent="1">
                    <mxGeometry x="720" y="240" width="160" height="60" as="geometry"/>
                </mxCell>
                <mxCell id="165" value="Chuyển đổi chuyến sang trạng thái đã được duyệt [approved]" style="whiteSpace=wrap;html=1;fillColor=#a20025;fontColor=#ffffff;strokeColor=#6F0000;" vertex="1" parent="1">
                    <mxGeometry x="760" y="355" width="160" height="60" as="geometry"/>
                </mxCell>
                <mxCell id="169" value="" style="edgeStyle=none;html=1;fontColor=#FFFFFF;" edge="1" parent="1" target="170" source="165">
                    <mxGeometry x="0.6667" y="95" relative="1" as="geometry">
                        <mxPoint x="920" y="380" as="sourcePoint"/>
                        <mxPoint as="offset"/>
                    </mxGeometry>
                </mxCell>
                <mxCell id="174" style="edgeStyle=none;html=1;fontColor=#FFFFFF;endArrow=classic;endFill=1;" edge="1" parent="1" source="170" target="173">
                    <mxGeometry relative="1" as="geometry"/>
                </mxCell>
                <mxCell id="170" value="Gửi mass mail đến các nhân sự tham dự và tài xế, thông báo còn [7] ngày là đi công tác" style="whiteSpace=wrap;html=1;" vertex="1" parent="1">
                    <mxGeometry x="1040" y="355" width="170" height="60" as="geometry"/>
                </mxCell>
                <mxCell id="172" style="edgeStyle=none;html=1;fontColor=#FFFFFF;endArrow=none;endFill=0;dashed=1;" edge="1" parent="1" source="171">
                    <mxGeometry relative="1" as="geometry">
                        <mxPoint x="968.6190243675594" y="384.952398390997" as="targetPoint"/>
                    </mxGeometry>
                </mxCell>
                <mxCell id="171" value="&lt;span style=&quot;font-size: 11px; text-align: center;&quot;&gt;Khi chuyến gần tới [7] ngày đón đi công tác&lt;/span&gt;" style="shape=note;size=15;align=left;spacingLeft=10;html=1;whiteSpace=wrap;rounded=0;dashed=1;labelBackgroundColor=none;fontSize=10;fontColor=default;strokeWidth=2;fillColor=default;" vertex="1" parent="1">
                    <mxGeometry x="920" y="280" width="205" height="45.55" as="geometry"/>
                </mxCell>
                <mxCell id="176" style="edgeStyle=none;html=1;fontColor=#FFFFFF;endArrow=classic;endFill=1;" edge="1" parent="1" source="173" target="175">
                    <mxGeometry relative="1" as="geometry"/>
                </mxCell>
                <mxCell id="173" value="Chuyển đổi chuyến sang trạng thái đã chuẩn bị [ready]" style="whiteSpace=wrap;html=1;fillColor=#a20025;fontColor=#ffffff;strokeColor=#6F0000;" vertex="1" parent="1">
                    <mxGeometry x="1280" y="355" width="160" height="60" as="geometry"/>
                </mxCell>
                <mxCell id="182" style="edgeStyle=none;html=1;fontColor=#FFFFFF;endArrow=classic;endFill=1;" edge="1" parent="1" source="175" target="180">
                    <mxGeometry relative="1" as="geometry"/>
                </mxCell>
                <mxCell id="175" value="Gửi mass mail đến các nhân sự tham dự và tài xế, thông báo [mai] đi công tác" style="whiteSpace=wrap;html=1;" vertex="1" parent="1">
                    <mxGeometry x="1280" y="520" width="160" height="60" as="geometry"/>
                </mxCell>
                <mxCell id="177" value="&lt;span style=&quot;font-size: 11px; text-align: center;&quot;&gt;Khi chuyến gần tới [1] ngày đón đi công tác&lt;/span&gt;" style="shape=note;size=15;align=left;spacingLeft=10;html=1;whiteSpace=wrap;rounded=0;dashed=1;labelBackgroundColor=none;fontSize=10;fontColor=default;strokeWidth=2;fillColor=default;" vertex="1" parent="1">
                    <mxGeometry x="1460" y="400" width="205" height="45.55" as="geometry"/>
                </mxCell>
                <mxCell id="178" style="edgeStyle=none;html=1;fontColor=#FFFFFF;endArrow=none;endFill=0;dashed=1;" edge="1" parent="1" source="177">
                    <mxGeometry relative="1" as="geometry">
                        <mxPoint x="1360" y="470" as="targetPoint"/>
                        <mxPoint x="1017.5671931205447" y="335.54999999999995" as="sourcePoint"/>
                    </mxGeometry>
                </mxCell>
                <mxCell id="187" style="edgeStyle=none;html=1;fontColor=#FFFFFF;endArrow=classic;endFill=1;" edge="1" parent="1" source="180" target="184">
                    <mxGeometry relative="1" as="geometry"/>
                </mxCell>
                <mxCell id="180" value="Chuyển đổi chuyến sang trạng thái đang đi [departing]" style="whiteSpace=wrap;html=1;fillColor=#a20025;fontColor=#ffffff;strokeColor=#6F0000;" vertex="1" parent="1">
                    <mxGeometry x="1040" y="520" width="170" height="60" as="geometry"/>
                </mxCell>
                <mxCell id="181" value="&lt;div style=&quot;text-align: center&quot;&gt;&lt;span style=&quot;font-size: 11px&quot;&gt;&lt;font&gt;Khi đến thời gian đón đi công tác&lt;/font&gt;&lt;/span&gt;&lt;/div&gt;" style="shape=note;size=15;align=left;spacingLeft=10;html=1;whiteSpace=wrap;rounded=0;dashed=1;labelBackgroundColor=none;fontSize=10;fontColor=default;strokeWidth=2;fillColor=default;" vertex="1" parent="1">
                    <mxGeometry x="1100" y="445.55" width="180" height="45.55" as="geometry"/>
                </mxCell>
                <mxCell id="183" style="edgeStyle=none;html=1;fontColor=#FFFFFF;endArrow=none;endFill=0;dashed=1;" edge="1" parent="1" source="181">
                    <mxGeometry relative="1" as="geometry">
                        <mxPoint x="1250" y="550" as="targetPoint"/>
                        <mxPoint x="1474.8411858125992" y="455.54999999999995" as="sourcePoint"/>
                    </mxGeometry>
                </mxCell>
                <mxCell id="191" style="edgeStyle=none;html=1;fontColor=#FFFFFF;endArrow=classic;endFill=1;" edge="1" parent="1" source="184" target="188">
                    <mxGeometry relative="1" as="geometry"/>
                </mxCell>
                <mxCell id="184" value="Chuyển đổi chuyến sang trạng thái đang đi [arrived]" style="whiteSpace=wrap;html=1;fillColor=#a20025;fontColor=#ffffff;strokeColor=#6F0000;" vertex="1" parent="1">
                    <mxGeometry x="760" y="520" width="170" height="60" as="geometry"/>
                </mxCell>
                <mxCell id="185" value="&lt;div style=&quot;text-align: center&quot;&gt;&lt;span style=&quot;font-size: 11px&quot;&gt;&lt;font&gt;Khi đến thời gian dự tín đến nơi công tác&lt;/font&gt;&lt;/span&gt;&lt;/div&gt;" style="shape=note;size=15;align=left;spacingLeft=10;html=1;whiteSpace=wrap;rounded=0;dashed=1;labelBackgroundColor=none;fontSize=10;fontColor=default;strokeWidth=2;fillColor=default;" vertex="1" parent="1">
                    <mxGeometry x="840" y="445.55" width="180" height="45.55" as="geometry"/>
                </mxCell>
                <mxCell id="186" style="edgeStyle=none;html=1;fontColor=#FFFFFF;endArrow=none;endFill=0;dashed=1;" edge="1" parent="1" source="185">
                    <mxGeometry relative="1" as="geometry">
                        <mxPoint x="990" y="550" as="targetPoint"/>
                        <mxPoint x="1214.8411858125992" y="455.54999999999995" as="sourcePoint"/>
                    </mxGeometry>
                </mxCell>
                <mxCell id="195" style="edgeStyle=none;html=1;fontColor=#FFFFFF;endArrow=classic;endFill=1;" edge="1" parent="1" source="188" target="196">
                    <mxGeometry relative="1" as="geometry">
                        <mxPoint x="580" y="670" as="targetPoint"/>
                    </mxGeometry>
                </mxCell>
                <mxCell id="188" value="Chuyển đổi chuyến sang trạng thái đang đi [returning]" style="whiteSpace=wrap;html=1;fillColor=#a20025;fontColor=#ffffff;strokeColor=#6F0000;" vertex="1" parent="1">
                    <mxGeometry x="495" y="520" width="170" height="60" as="geometry"/>
                </mxCell>
                <mxCell id="189" value="&lt;div style=&quot;text-align: center&quot;&gt;&lt;span style=&quot;font-size: 11px&quot;&gt;&lt;font&gt;Khi đến thời gian dự tín bắt đầu về từ nơi công tác&lt;/font&gt;&lt;/span&gt;&lt;/div&gt;" style="shape=note;size=15;align=left;spacingLeft=10;html=1;whiteSpace=wrap;rounded=0;dashed=1;labelBackgroundColor=none;fontSize=10;fontColor=default;strokeWidth=2;fillColor=default;" vertex="1" parent="1">
                    <mxGeometry x="550" y="445.55" width="180" height="45.55" as="geometry"/>
                </mxCell>
                <mxCell id="190" style="edgeStyle=none;html=1;fontColor=#FFFFFF;endArrow=none;endFill=0;dashed=1;" edge="1" parent="1" source="189">
                    <mxGeometry relative="1" as="geometry">
                        <mxPoint x="700" y="550" as="targetPoint"/>
                        <mxPoint x="924.8411858125992" y="455.54999999999995" as="sourcePoint"/>
                    </mxGeometry>
                </mxCell>
                <mxCell id="200" value="[qua thời gian về từ công tác]" style="edgeStyle=none;html=1;fontColor=default;endArrow=classic;endFill=1;" edge="1" parent="1" source="196" target="199">
                    <mxGeometry x="-0.1338" y="-1" relative="1" as="geometry">
                        <mxPoint as="offset"/>
                    </mxGeometry>
                </mxCell>
                <mxCell id="204" value="[tài xế hoặc nhân sự quản lí xác &lt;br&gt;nhận chuyền đã về" style="edgeStyle=none;html=1;fontColor=default;endArrow=classic;endFill=1;" edge="1" parent="1" source="196" target="203">
                    <mxGeometry x="-0.3846" y="20" relative="1" as="geometry">
                        <mxPoint as="offset"/>
                    </mxGeometry>
                </mxCell>
                <mxCell id="196" value="returning" style="rhombus;whiteSpace=wrap;html=1;" vertex="1" parent="1">
                    <mxGeometry x="550" y="650" width="60" height="60" as="geometry"/>
                </mxCell>
                <mxCell id="221" style="edgeStyle=none;html=1;fontColor=default;endArrow=classic;endFill=1;" edge="1" parent="1" source="197" target="220">
                    <mxGeometry relative="1" as="geometry"/>
                </mxCell>
                <mxCell id="197" value="Chuyển đổi sang trạng thái trễ [late]" style="whiteSpace=wrap;html=1;fillColor=#a20025;fontColor=#ffffff;strokeColor=#6F0000;" vertex="1" parent="1">
                    <mxGeometry x="720" y="793.63" width="120" height="60" as="geometry"/>
                </mxCell>
                <mxCell id="201" style="edgeStyle=none;html=1;fontColor=#FFFFFF;endArrow=classic;endFill=1;" edge="1" parent="1" source="199" target="197">
                    <mxGeometry relative="1" as="geometry"/>
                </mxCell>
                <mxCell id="199" value="&lt;span&gt;Gửi mass mail đến các nhân sự quản li để thăm dò tình trạng của công tác&lt;/span&gt;" style="whiteSpace=wrap;html=1;" vertex="1" parent="1">
                    <mxGeometry x="495" y="780" width="165" height="87.27" as="geometry"/>
                </mxCell>
                <mxCell id="206" style="edgeStyle=none;html=1;fontColor=#FFFFFF;endArrow=classic;endFill=1;" edge="1" parent="1" source="203" target="237">
                    <mxGeometry relative="1" as="geometry">
                        <mxPoint x="1100" y="680" as="targetPoint"/>
                    </mxGeometry>
                </mxCell>
                <mxCell id="203" value="Chuyển đổi chuyến sang trạng thái đã về [returned]" style="whiteSpace=wrap;html=1;fillColor=#a20025;fontColor=#ffffff;strokeColor=#6F0000;" vertex="1" parent="1">
                    <mxGeometry x="870" y="650" width="170" height="60" as="geometry"/>
                </mxCell>
                <mxCell id="205" value="Gửi mass mail đến các nhân sự tham dự yêu cầu đánh giá tài xế chuyến công tác" style="whiteSpace=wrap;html=1;" vertex="1" parent="1">
                    <mxGeometry x="1560" y="650" width="170" height="60" as="geometry"/>
                </mxCell>
                <mxCell id="208" style="edgeStyle=none;html=1;fontColor=#FFFFFF;endArrow=classic;endFill=1;" edge="1" parent="1" source="207" target="205">
                    <mxGeometry relative="1" as="geometry"/>
                </mxCell>
                <mxCell id="207" value="Mở khóa tính năng đánh giá tài xế nếu không phải tự lái" style="whiteSpace=wrap;html=1;" vertex="1" parent="1">
                    <mxGeometry x="1320" y="650" width="170" height="60" as="geometry"/>
                </mxCell>
                <mxCell id="209" value="" style="ellipse;html=1;shape=endState;fillColor=#000000;strokeColor=#ff0000;dashed=1;" vertex="1" parent="1">
                    <mxGeometry x="1800" y="665" width="30" height="30" as="geometry"/>
                </mxCell>
                <mxCell id="210" value="" style="edgeStyle=orthogonalEdgeStyle;html=1;verticalAlign=bottom;endArrow=open;endSize=8;strokeColor=#ff0000;" edge="1" parent="1" target="209" source="205">
                    <mxGeometry relative="1" as="geometry">
                        <mxPoint x="1590" y="780" as="targetPoint"/>
                        <mxPoint x="1635" y="680" as="sourcePoint"/>
                    </mxGeometry>
                </mxCell>
                <mxCell id="211" value="" style="ellipse;html=1;shape=endState;fillColor=#000000;strokeColor=#ff0000;dashed=1;" vertex="1" parent="1">
                    <mxGeometry x="785" y="160" width="30" height="30" as="geometry"/>
                </mxCell>
                <mxCell id="212" value="" style="edgeStyle=orthogonalEdgeStyle;html=1;verticalAlign=bottom;endArrow=open;endSize=8;strokeColor=#ff0000;" edge="1" parent="1" target="211" source="163">
                    <mxGeometry relative="1" as="geometry">
                        <mxPoint x="835" y="290" as="targetPoint"/>
                        <mxPoint x="880" y="190" as="sourcePoint"/>
                    </mxGeometry>
                </mxCell>
                <mxCell id="216" value="đầu ra từ use-case fleet_business_trip và fleet_business_rent" style="shape=note2;boundedLbl=1;whiteSpace=wrap;html=1;size=25;verticalAlign=top;align=center;fontColor=default;strokeColor=default;fillColor=default;" vertex="1" parent="1">
                    <mxGeometry x="110" y="361.1" width="140" height="84.45" as="geometry"/>
                </mxCell>
                <mxCell id="219" style="edgeStyle=none;html=1;fontColor=#FFFFFF;endArrow=none;endFill=0;dashed=1;" edge="1" parent="1" source="37" target="216">
                    <mxGeometry relative="1" as="geometry">
                        <mxPoint x="353.27" y="445.55" as="targetPoint"/>
                        <mxPoint x="310.0009458218549" y="386.65000000000003" as="sourcePoint"/>
                    </mxGeometry>
                </mxCell>
                <mxCell id="222" style="edgeStyle=none;html=1;fontColor=default;endArrow=classic;endFill=1;" edge="1" parent="1" source="220" target="203">
                    <mxGeometry relative="1" as="geometry"/>
                </mxCell>
                <mxCell id="224" value="[tài xế hoặc nhân sự quản lí xác&lt;br&gt;nhận chuyền đã về" style="edgeLabel;html=1;align=center;verticalAlign=middle;resizable=0;points=[];fontColor=default;" vertex="1" connectable="0" parent="222">
                    <mxGeometry x="-0.3617" relative="1" as="geometry">
                        <mxPoint y="-7" as="offset"/>
                    </mxGeometry>
                </mxCell>
                <mxCell id="226" value="" style="edgeStyle=none;html=1;fontColor=default;endArrow=classic;endFill=1;" edge="1" parent="1" source="220" target="225">
                    <mxGeometry relative="1" as="geometry"/>
                </mxCell>
                <mxCell id="227" value="[tài xế hoặc nhân sự quản lí xác&lt;br&gt;nhận chuyền gặp vấn đề, tai nạn" style="edgeLabel;html=1;align=center;verticalAlign=middle;resizable=0;points=[];fontColor=default;" vertex="1" connectable="0" parent="226">
                    <mxGeometry x="-0.2222" y="-4" relative="1" as="geometry">
                        <mxPoint x="4" y="15" as="offset"/>
                    </mxGeometry>
                </mxCell>
                <mxCell id="220" value="returning" style="rhombus;whiteSpace=wrap;html=1;" vertex="1" parent="1">
                    <mxGeometry x="925" y="793.63" width="60" height="60" as="geometry"/>
                </mxCell>
                <mxCell id="230" style="edgeStyle=none;html=1;fontColor=default;endArrow=classic;endFill=1;" edge="1" parent="1" source="225" target="229">
                    <mxGeometry relative="1" as="geometry"/>
                </mxCell>
                <mxCell id="225" value="Nhân sự quản lí đã xác nhận phải ghi rõ nguyên nhân hoãn chuyến công tác vào nhật kí chuyến" style="whiteSpace=wrap;html=1;" vertex="1" parent="1">
                    <mxGeometry x="870" y="950" width="170" height="60" as="geometry"/>
                </mxCell>
                <mxCell id="229" value="Chuyển đổi sang tai nạn [incident]" style="whiteSpace=wrap;html=1;fillColor=#a20025;fontColor=#ffffff;strokeColor=#6F0000;" vertex="1" parent="1">
                    <mxGeometry x="660" y="950" width="120" height="60" as="geometry"/>
                </mxCell>
                <mxCell id="231" value="" style="ellipse;html=1;shape=endState;fillColor=#000000;strokeColor=#ff0000;dashed=1;" vertex="1" parent="1">
                    <mxGeometry x="500" y="965" width="30" height="30" as="geometry"/>
                </mxCell>
                <mxCell id="232" value="" style="edgeStyle=orthogonalEdgeStyle;html=1;verticalAlign=bottom;endArrow=open;endSize=8;strokeColor=#ff0000;" edge="1" parent="1" target="231" source="229">
                    <mxGeometry relative="1" as="geometry">
                        <mxPoint x="460" y="1080" as="targetPoint"/>
                        <mxPoint x="430" y="980" as="sourcePoint"/>
                    </mxGeometry>
                </mxCell>
                <mxCell id="233" value="Đầu vào của use-case fleet_business_trip_incident hoặc fleet_business_rent_incident" style="shape=note2;boundedLbl=1;whiteSpace=wrap;html=1;size=25;verticalAlign=top;align=center;fontColor=default;strokeColor=default;fillColor=default;" vertex="1" parent="1">
                    <mxGeometry x="1080" y="867.27" width="170.3" height="102.73" as="geometry"/>
                </mxCell>
                <mxCell id="235" style="edgeStyle=none;html=1;fontColor=#FFFFFF;endArrow=none;endFill=0;dashed=1;" edge="1" parent="1" source="225" target="233">
                    <mxGeometry relative="1" as="geometry">
                        <mxPoint x="1100" y="838.9" as="targetPoint"/>
                        <mxPoint x="1056.730945821855" y="779.9999999999999" as="sourcePoint"/>
                    </mxGeometry>
                </mxCell>
                <mxCell id="238" value="[nếu đang là công &lt;br&gt;tác đội xe]" style="edgeStyle=none;html=1;fontColor=default;endArrow=classic;endFill=1;" edge="1" parent="1" source="237" target="207">
                    <mxGeometry x="-0.0782" y="20" relative="1" as="geometry">
                        <mxPoint as="offset"/>
                    </mxGeometry>
                </mxCell>
                <mxCell id="237" value="" style="rhombus;whiteSpace=wrap;html=1;" vertex="1" parent="1">
                    <mxGeometry x="1140.15" y="655" width="50" height="50" as="geometry"/>
                </mxCell>
                <mxCell id="239" value="" style="ellipse;html=1;shape=endState;fillColor=#000000;strokeColor=#ff0000;dashed=1;" vertex="1" parent="1">
                    <mxGeometry x="1320" y="780" width="30" height="30" as="geometry"/>
                </mxCell>
                <mxCell id="240" value="" style="edgeStyle=orthogonalEdgeStyle;html=1;verticalAlign=bottom;endArrow=open;endSize=8;strokeColor=#ff0000;entryX=0;entryY=0.5;entryDx=0;entryDy=0;" edge="1" parent="1" target="239" source="237">
                    <mxGeometry relative="1" as="geometry">
                        <mxPoint x="1060" y="865" as="targetPoint"/>
                        <mxPoint x="1200.0000000000005" y="765" as="sourcePoint"/>
                        <Array as="points">
                            <mxPoint x="1165" y="795"/>
                        </Array>
                    </mxGeometry>
                </mxCell>
                <mxCell id="242" value="[nếu đang là công&lt;br&gt;tác mua vé]" style="edgeLabel;html=1;align=center;verticalAlign=middle;resizable=0;points=[];fontColor=default;" vertex="1" connectable="0" parent="240">
                    <mxGeometry x="0.0535" y="1" relative="1" as="geometry">
                        <mxPoint x="-39" y="-54" as="offset"/>
                    </mxGeometry>
                </mxCell>
            </root>
        </mxGraphModel>
    </diagram>
</mxfile>